<svg width="285" height="81" viewBox="0 0 285 81" fill="none" xmlns="http://www.w3.org/2000/svg">
<path d="M83.0056 70C82.4251 70 82.1348 69.7097 82.1348 69.1292V62.5809C82.1348 62.2791 82.1464 62.0352 82.1696 61.8495C82.2161 61.6637 82.3554 61.5128 82.5876 61.3967L91.7134 57.2169V51.0169L82.727 45.4439C82.3322 45.2117 82.1348 44.8634 82.1348 44.399V31.6159C82.1348 31.2444 82.158 30.9773 82.2045 30.8148C82.2509 30.629 82.4251 30.4316 82.727 30.2226L91.8876 24.0227C92.1198 23.8833 92.3288 23.7788 92.5146 23.7092C92.7235 23.6163 92.979 23.5699 93.2808 23.5699H102.685C103.266 23.5699 103.556 23.8601 103.556 24.4406V30.362C103.556 30.8728 103.382 31.2211 103.034 31.4069L93.9078 35.1687V41.6125L103.034 46.8372C103.382 46.9997 103.556 47.3713 103.556 47.9518V63.1034C103.556 63.2892 103.521 63.4865 103.452 63.6955C103.405 63.9045 103.289 64.0555 103.103 64.1483L92.1662 69.582C92.0269 69.6517 91.8528 69.7446 91.6438 69.8607C91.458 69.9536 91.2722 70 91.0865 70H83.0056ZM122.188 70C121.724 70 121.259 69.8491 120.795 69.5472L115.117 65.7157L111.216 59.4461C111.054 59.1442 110.914 58.9469 110.798 58.854C110.682 58.7379 110.624 58.5057 110.624 58.1574V43.5282C110.624 43.1799 110.671 42.9477 110.763 42.8316C110.856 42.7155 111.007 42.5065 111.216 42.2046L114.769 36.2833L120.795 32.1384C121.004 31.999 121.213 31.8945 121.422 31.8249C121.631 31.732 121.886 31.6856 122.188 31.6856H128.214C128.794 31.6856 129.085 31.9758 129.085 32.5563V39.0698C129.085 39.2556 129.061 39.4529 129.015 39.6619C128.992 39.8709 128.887 40.0335 128.702 40.1496L124.731 42.1349L121.666 46.1405V55.4405L124.905 59.1326L128.702 61.536C128.934 61.6753 129.05 61.8495 129.05 62.0585C129.073 62.2442 129.085 62.43 129.085 62.6158V69.1292C129.085 69.7097 128.794 70 128.214 70H122.188ZM136.91 70C136.329 70 136.039 69.7097 136.039 69.1292V32.5563C136.039 31.9758 136.329 31.6856 136.91 31.6856H146.175C146.755 31.6856 147.046 31.9758 147.046 32.5563V69.1292C147.046 69.7097 146.755 70 146.175 70H136.91ZM136.736 28.7946C136.271 28.7946 136.039 28.5623 136.039 28.0979V23.6744C136.039 23.2099 136.271 22.9777 136.736 22.9777H146.419C146.837 22.9777 147.046 23.2099 147.046 23.6744V28.0979C147.046 28.5623 146.837 28.7946 146.419 28.7946H136.736ZM156.026 80.4494C155.446 80.4494 155.155 80.1591 155.155 79.5786V32.5563C155.155 31.9758 155.446 31.6856 156.026 31.6856H163.236C163.654 31.6856 164.061 31.8829 164.455 32.2777L166.197 34.0193L167.938 32.2777C168.31 31.8829 168.774 31.6856 169.332 31.6856H174.661C175.195 31.6856 175.659 31.8829 176.054 32.2777L183.02 39.2439C183.415 39.6155 183.613 40.0799 183.613 40.6372V61.0484C183.613 61.6057 183.415 62.0701 183.02 62.4416L176.054 69.4079C175.659 69.8026 175.195 70 174.661 70H169.332C168.774 70 168.31 69.8026 167.938 69.4079L166.197 67.6663V79.5786C166.197 80.1591 165.907 80.4494 165.326 80.4494H156.026ZM166.197 61.8843H170.586C171.352 61.8843 171.874 61.7334 172.153 61.4315C172.432 61.1296 172.571 60.5955 172.571 59.8293V41.8563C172.571 41.09 172.432 40.5559 172.153 40.2541C171.874 39.9522 171.352 39.8012 170.586 39.8012H168.147C167.404 39.8012 166.894 39.9522 166.615 40.2541C166.336 40.5559 166.197 41.09 166.197 41.8563V61.8843ZM200.463 70C199.929 70 199.465 69.8026 199.07 69.4079L192.104 62.4416C191.709 62.0701 191.512 61.6057 191.512 61.0484V32.5563C191.512 31.9758 191.802 31.6856 192.382 31.6856H201.682C202.263 31.6856 202.553 31.9758 202.553 32.5563V61.2922H208.37V32.5563C208.37 31.9758 208.66 31.6856 209.241 31.6856H218.506C219.086 31.6856 219.377 31.9758 219.377 32.5563V61.2922H225.194V32.5563C225.194 31.9758 225.484 31.6856 226.064 31.6856H235.364C235.945 31.6856 236.235 31.9758 236.235 32.5563V61.0484C236.235 61.6057 236.038 62.0701 235.643 62.4416L228.677 69.4079C228.282 69.8026 227.818 70 227.283 70H219.342C218.785 70 218.32 69.8026 217.949 69.4079L213.246 64.7056H214.5L209.798 69.4079C209.427 69.8026 208.962 70 208.405 70H200.463ZM252.354 70C251.82 70 251.355 69.8026 250.961 69.4079L245.144 63.6259C244.772 63.2311 244.586 62.7667 244.586 62.2326V39.8012H243.124C242.543 39.8012 242.253 39.511 242.253 38.9305V32.5563C242.253 31.9758 242.543 31.6856 243.124 31.6856H244.586V27.3316C244.586 26.7511 244.877 26.4609 245.457 26.4609H254.722C255.303 26.4609 255.593 26.7511 255.593 27.3316V31.6856H258.972C259.552 31.6856 259.843 31.9758 259.843 32.5563V38.9305C259.843 39.511 259.552 39.8012 258.972 39.8012H255.593V58.4012C255.593 58.8424 255.732 59.2023 256.011 59.4809L259.425 62.9292C259.657 63.1382 259.773 63.4865 259.773 63.9742V69.1292C259.773 69.7097 259.483 70 258.902 70H252.354Z" fill="#EA580C"/>
<circle cx="30.5" cy="44.5" r="30.5" fill="#EA580C"/>
<path d="M42.5868 31.0584C19.4691 36.2673 58.487 64.3541 42.0277 60.9189C25.5683 57.4837 39.8567 56.1856 17.7413 45.5796C-4.37414 34.9735 65.7044 25.8496 42.5868 31.0584Z" fill="white"/>
</svg>
