<svg width="189" height="53" viewBox="0 0 189 53" fill="none" xmlns="http://www.w3.org/2000/svg">
<path d="M57.6082 46C57.2302 46 57.0412 45.811 57.0412 45.433V41.1692C57.0412 40.9726 57.0488 40.8138 57.0639 40.6929C57.0941 40.5719 57.1848 40.4736 57.336 40.398L63.2782 37.6764V33.6394L57.4268 30.0106C57.1697 29.8594 57.0412 29.6326 57.0412 29.3302V21.0066C57.0412 20.7647 57.0563 20.5908 57.0866 20.485C57.1168 20.364 57.2302 20.2355 57.4268 20.0994L63.3916 16.0624C63.5428 15.9717 63.6789 15.9036 63.7998 15.8583C63.9359 15.7978 64.1022 15.7676 64.2988 15.7676H70.4224C70.8004 15.7676 70.9894 15.9566 70.9894 16.3346V20.1902C70.9894 20.5228 70.876 20.7496 70.6492 20.8706L64.707 23.32V27.5158L70.6492 30.9178C70.876 31.0236 70.9894 31.2656 70.9894 31.6436V41.5094C70.9894 41.6303 70.9667 41.7588 70.9214 41.8949C70.8911 42.031 70.8155 42.1293 70.6946 42.1898L63.573 45.7278C63.4823 45.7732 63.3689 45.8337 63.2328 45.9093C63.1119 45.9698 62.9909 46 62.87 46H57.6082ZM83.1214 46C82.819 46 82.5166 45.9017 82.2142 45.7052L78.5174 43.2104L75.9772 39.128C75.8714 38.9314 75.7807 38.8029 75.7051 38.7424C75.6295 38.6668 75.5917 38.5156 75.5917 38.2888V28.7632C75.5917 28.5364 75.6219 28.3852 75.6824 28.3096C75.7429 28.234 75.8411 28.0979 75.9772 27.9014L78.2906 24.0458L82.2142 21.3468C82.3503 21.2561 82.4864 21.1881 82.6225 21.1427C82.7585 21.0822 82.9249 21.052 83.1214 21.052H87.0451C87.4231 21.052 87.6121 21.241 87.6121 21.619V25.8602C87.6121 25.9811 87.5969 26.1096 87.5667 26.2457C87.5516 26.3818 87.4835 26.4876 87.3626 26.5632L84.7771 27.856L82.7812 30.4642V36.5198L84.8905 38.9238L87.3626 40.4888C87.5138 40.5795 87.5894 40.6929 87.5894 40.829C87.6045 40.9499 87.6121 41.0709 87.6121 41.1918V45.433C87.6121 45.811 87.4231 46 87.0451 46H83.1214ZM92.7073 46C92.3293 46 92.1403 45.811 92.1403 45.433V21.619C92.1403 21.241 92.3293 21.052 92.7073 21.052H98.7402C99.1182 21.052 99.3072 21.241 99.3072 21.619V45.433C99.3072 45.811 99.1182 46 98.7402 46H92.7073ZM92.5939 19.1696C92.2915 19.1696 92.1403 19.0184 92.1403 18.716V15.8356C92.1403 15.5332 92.2915 15.382 92.5939 15.382H98.8989C99.1711 15.382 99.3072 15.5332 99.3072 15.8356V18.716C99.3072 19.0184 99.1711 19.1696 98.8989 19.1696H92.5939ZM105.155 52.804C104.777 52.804 104.588 52.615 104.588 52.237V21.619C104.588 21.241 104.777 21.052 105.155 21.052H109.849C110.122 21.052 110.386 21.1805 110.643 21.4376L111.777 22.5716L112.911 21.4376C113.153 21.1805 113.456 21.052 113.818 21.052H117.288C117.636 21.052 117.939 21.1805 118.196 21.4376L122.732 25.9736C122.989 26.2155 123.117 26.5179 123.117 26.8808V40.1712C123.117 40.5341 122.989 40.8365 122.732 41.0784L118.196 45.6144C117.939 45.8715 117.636 46 117.288 46H113.818C113.456 46 113.153 45.8715 112.911 45.6144L111.777 44.4804V52.237C111.777 52.615 111.588 52.804 111.21 52.804H105.155ZM111.777 40.7156H114.635C115.134 40.7156 115.474 40.6173 115.656 40.4207C115.837 40.2242 115.928 39.8764 115.928 39.3774V27.6746C115.928 27.1756 115.837 26.8278 115.656 26.6313C115.474 26.4347 115.134 26.3364 114.635 26.3364H113.047C112.563 26.3364 112.231 26.4347 112.049 26.6313C111.868 26.8278 111.777 27.1756 111.777 27.6746V40.7156ZM134.089 46C133.742 46 133.439 45.8715 133.182 45.6144L128.646 41.0784C128.389 40.8365 128.261 40.5341 128.261 40.1712V21.619C128.261 21.241 128.45 21.052 128.828 21.052H134.883C135.261 21.052 135.45 21.241 135.45 21.619V40.33H139.238V21.619C139.238 21.241 139.427 21.052 139.805 21.052H145.838C146.216 21.052 146.405 21.241 146.405 21.619V40.33H150.192V21.619C150.192 21.241 150.381 21.052 150.759 21.052H156.815C157.193 21.052 157.382 21.241 157.382 21.619V40.1712C157.382 40.5341 157.253 40.8365 156.996 41.0784L152.46 45.6144C152.203 45.8715 151.901 46 151.553 46H146.382C146.019 46 145.717 45.8715 145.475 45.6144L142.413 42.5526H143.229L140.168 45.6144C139.926 45.8715 139.623 46 139.26 46H134.089ZM167.877 46C167.53 46 167.227 45.8715 166.97 45.6144L163.183 41.8496C162.941 41.5925 162.82 41.2901 162.82 40.9424V26.3364H161.867C161.489 26.3364 161.3 26.1474 161.3 25.7694V21.619C161.3 21.241 161.489 21.052 161.867 21.052H162.82V18.217C162.82 17.839 163.009 17.65 163.387 17.65H169.42C169.798 17.65 169.987 17.839 169.987 18.217V21.052H172.187C172.565 21.052 172.754 21.241 172.754 21.619V25.7694C172.754 26.1474 172.565 26.3364 172.187 26.3364H169.987V38.4476C169.987 38.7348 170.077 38.9692 170.259 39.1506L172.481 41.396C172.633 41.532 172.708 41.7588 172.708 42.0764V45.433C172.708 45.811 172.519 46 172.141 46H167.877Z" fill="#FF4949"/>
<circle cx="20" cy="32" r="20" fill="#FF4949"/>
<path d="M28.2673 22.4234C13.2123 26.0203 38.6222 45.4155 27.9032 43.0433C17.1843 40.6712 26.4894 39.7748 12.0871 32.4509C-2.31525 25.1269 43.3224 18.8265 28.2673 22.4234Z" fill="white"/>
</svg>
